<mxfile host="app.diagrams.net" modified="2024-01-08T04:26:56.852Z" agent="Mozilla/5.0 (Macintosh; Intel Mac OS X 10_15_7) AppleWebKit/605.1.15 (KHTML, like Gecko) Version/17.2 Safari/605.1.15" version="22.1.17" etag="HcpRJhO0wzo3n5a3vkLx" type="github">
  <diagram name="Page-1" id="GmiQNFK4QGbXsg6Fxdkf">
    <mxGraphModel>
      <root>
        <mxCell id="0" />
        <mxCell id="1" parent="0" />
      </root>
    </mxGraphModel>
  </diagram>
</mxfile>
